<?xml version="1.0" encoding="UTF-8"?>
<!DOCTYPE svg PUBLIC "-//W3C//DTD SVG 1.1//EN" "http://www.w3.org/Graphics/SVG/1.1/DTD/svg11.dtd">
<!-- Creator: CorelDRAW -->
<svg xmlns="http://www.w3.org/2000/svg" xml:space="preserve" width="210mm" height="297mm" version="1.1" style="shape-rendering:geometricPrecision; text-rendering:geometricPrecision; image-rendering:optimizeQuality; fill-rule:evenodd; clip-rule:evenodd"
viewBox="0 0 21000 29700"
 xmlns:xlink="http://www.w3.org/1999/xlink"
 xmlns:xodm="http://www.corel.com/coreldraw/odm/2003">
 <defs>
  <style type="text/css">
   <![CDATA[
    .fil0 {fill:black}
   ]]>
  </style>
 </defs>
 <g id="Capa_x0020_1">
  <metadata id="CorelCorpID_0Corel-Layer"/>
  <path class="fil0" d="M-8557.13 14868.93l1587.5 -396.88c1587.5,-370.41 4762.5,-1137.71 7937.5,-767.29 3175,396.88 6350,1905.01 9525,1719.8 3175,-185.21 6350,-2090.22 9525,-2672.3 3175,-555.62 6350,211.67 7937.5,582.08l1587.5 370.42 0 3439.59 -1587.5 0c-1587.5,0 -4762.5,0 -7937.5,0 -3175,0 -6350,0 -9525,0 -3175,0 -6350,0 -9525,0 -3175,0 -6350,0 -7937.5,0l-1587.5 0 0 -2275.42z"/>
 </g>
</svg>
